<svg width="77" height="68" viewBox="0 0 77 68" fill="none" xmlns="http://www.w3.org/2000/svg">
<path d="M8.073 8.55H0.39V2.739H22.698V8.55H14.976V30H8.073V8.55ZM32.4401 2.739H39.3431V30H32.4401V2.739ZM50.4425 2.739H57.3455V14.049L66.7445 2.739H74.9345L63.8975 15.999L75.6755 30H67.4855L57.3455 17.949V30H50.4425V2.739ZM8.073 42.55H0.39V36.739H22.698V42.55H14.976V64H8.073V42.55ZM30.1001 36.739H36.8861L47.7671 64H40.7081L38.5241 58.384H28.4621L26.2781 64H19.1801L30.1001 36.739ZM36.8081 53.08L33.4931 43.915L30.1391 53.08H36.8081ZM50.505 36.739H57.408V48.049L66.807 36.739H74.997L63.96 49.999L75.738 64H67.548L57.408 51.949V64H50.505V36.739Z" fill="#F5F6F1"/>
</svg>
